{
	"asset":{
		"generator":"Khronos glTF Blender I/O v3.6.27",
		"version":"2.0"
	},
	"extensionsUsed":[
		"KHR_lights_punctual"
	],
	"extensionsRequired":[
		"KHR_lights_punctual"
	],
	"extensions":{
		"KHR_lights_punctual":{
			"lights":[
				{
					"color":[
						1,
						1,
						1
					],
					"intensity":54351.41306588226,
					"type":"point",
					"name":"Light"
				}
			]
		}
	},
	"scene":0,
	"scenes":[
		{
			"extras":{
				"assets used":{
					"a445504b-eb33-4422-8085-e75638b65aad":{
						"thumbnail":"thumbnail_55d05e28-8dc3-46f6-b061-aa42eb5f9d50.png.512x512_q85_crop-%2C.png.webp",
						"thumbnail_small":"thumbnail_55d05e28-8dc3-46f6-b061-aa42eb5f9d50.png.256x256_q85_crop-%2C.png.webp",
						"downloaded":0,
						"texture_size_meters":1.0,
						"pk":33574,
						"url":"https://www.blenderkit.com/api/v1/assets/53179125-8e27-4296-ac2a-7ba5c47483a2/",
						"id":"53179125-8e27-4296-ac2a-7ba5c47483a2",
						"assetBaseId":"a445504b-eb33-4422-8085-e75638b65aad",
						"versionNumber":1,
						"author":{
							"id":"425",
							"firstName":"DJ",
							"lastName":"SOLANA",
							"gravatarHash":"acd315a95924202e8dba15edafa9d8ef",
							"avatar128":"/avatar-redirect/f5dfc2fc-834f-4feb-8658-8f8b1072cfa9/128/",
							"aboutMe":"\u2022 Graphic & Product Designer\r\n\u2022 3D Artist & Maker",
							"aboutMeUrl":"http://www.jackinthebox.com.hk",
							"fullName":"DJ SOLANA",
							"app_id":17456,
							"tooltip":"DJ SOLANA\n\n\u2022 Graphic & Product Designer\n\u2022 3D Artist & Maker\n",
							"gravatarImg":"C:\\Users\\anwar\\AppData\\Local\\Temp\\bktemp_anwar\\bkit_g\\425.jpg"
						},
						"name":"Doughnut",
						"displayName":"Doughnut",
						"description":"A magical material that transforms everything into a doughnut for all Blender user.",
						"assetType":"material",
						"category":"food-material",
						"adult":false,
						"isFree":true,
						"tags":[
							"Doughnut",
							"Donut",
							"Torus",
							"Ring",
							"Sweet",
							"Dessert",
							"Cake",
							"Coffee",
							"Tea",
							"Relax"
						],
						"license":"royalty_free",
						"sourceAppName":"blender",
						"sourceAppVersion":"3.2.0",
						"addonVersion":"3.1.5",
						"created":"2022-06-10T15:30:14.952413+02:00",
						"lastUserInteraction":"2022-06-24T20:40:46.337132+02:00",
						"verificationStatus":"validated",
						"isPrivate":false,
						"files":[
							{
								"fileType":"blend",
								"downloadUrl":"https://www.blenderkit.com/api/v1/downloads/119757/",
								"fileThumbnail":null,
								"fileThumbnailLarge":null,
								"created":"2022-06-24T20:40:45.009553+02:00",
								"modified":"2022-06-24T20:40:45.720940+02:00",
								"mimeType":null,
								"resolution":null,
								"url":"https://public.blenderkit.com/public-assets/assets/531791258e274296ac2a7ba5c47483a2/files/blend_79916e4f-2be0-4137-aea6-4472d01b051c.blend",
								"file_name":"blend_79916e4f-2be0-4137-aea6-4472d01b051c.blend"
							},
							{
								"fileType":"thumbnail",
								"downloadUrl":"https://www.blenderkit.com/api/v1/downloads/119756/",
								"fileThumbnail":"https://public.blenderkit.com/thumbnails/assets/531791258e274296ac2a7ba5c47483a2/files/thumbnail_55d05e28-8dc3-46f6-b061-aa42eb5f9d50.png.96x96_q85_crop-%2C.png",
								"fileThumbnailLarge":"https://public.blenderkit.com/thumbnails/assets/531791258e274296ac2a7ba5c47483a2/files/thumbnail_55d05e28-8dc3-46f6-b061-aa42eb5f9d50.png.1024x1024_q85_crop-%2C.png",
								"created":"2022-06-24T20:40:35.116646+02:00",
								"modified":"2022-06-24T20:40:41.444070+02:00",
								"mimeType":null,
								"resolution":null
							}
						],
						"filesSize":81,
						"thumbnailSmallUrl":"https://public.blenderkit.com/thumbnails/assets/531791258e274296ac2a7ba5c47483a2/files/thumbnail_55d05e28-8dc3-46f6-b061-aa42eb5f9d50.png.256x256_q85_crop-%2C.png",
						"thumbnailMiddleUrl":"https://public.blenderkit.com/thumbnails/assets/531791258e274296ac2a7ba5c47483a2/files/thumbnail_55d05e28-8dc3-46f6-b061-aa42eb5f9d50.png.512x512_q85_crop-%2C.png",
						"thumbnailLargeUrl":"https://public.blenderkit.com/thumbnails/assets/531791258e274296ac2a7ba5c47483a2/files/thumbnail_55d05e28-8dc3-46f6-b061-aa42eb5f9d50.png.1024x1024_q85_crop-%2C.png",
						"thumbnailXlargeUrl":"https://public.blenderkit.com/thumbnails/assets/531791258e274296ac2a7ba5c47483a2/files/thumbnail_55d05e28-8dc3-46f6-b061-aa42eb5f9d50.png.2048x2048_q85_crop-%2C.png",
						"thumbnailSmallUrlNonsquared":"https://public.blenderkit.com/thumbnails/assets/531791258e274296ac2a7ba5c47483a2/files/thumbnail_55d05e28-8dc3-46f6-b061-aa42eb5f9d50.png.256x256_q85.png",
						"thumbnailMiddleUrlNonsquared":"https://public.blenderkit.com/thumbnails/assets/531791258e274296ac2a7ba5c47483a2/files/thumbnail_55d05e28-8dc3-46f6-b061-aa42eb5f9d50.png.512x512_q85.png",
						"thumbnailLargeUrlNonsquared":"https://public.blenderkit.com/thumbnails/assets/531791258e274296ac2a7ba5c47483a2/files/thumbnail_55d05e28-8dc3-46f6-b061-aa42eb5f9d50.png.1024x1024_q85.png",
						"thumbnailXlargeUrlNonsquared":"https://public.blenderkit.com/thumbnails/assets/531791258e274296ac2a7ba5c47483a2/files/thumbnail_55d05e28-8dc3-46f6-b061-aa42eb5f9d50.png.2048x2048_q85.png",
						"thumbnailSmallUrlWebp":"https://public.blenderkit.com/thumbnails/assets/531791258e274296ac2a7ba5c47483a2/files/thumbnail_55d05e28-8dc3-46f6-b061-aa42eb5f9d50.png.256x256_q85_crop-%2C.png.webp?webp_generated=1656204962",
						"thumbnailMiddleUrlWebp":"https://public.blenderkit.com/thumbnails/assets/531791258e274296ac2a7ba5c47483a2/files/thumbnail_55d05e28-8dc3-46f6-b061-aa42eb5f9d50.png.512x512_q85_crop-%2C.png.webp?webp_generated=1656204962",
						"thumbnailLargeUrlWebp":"https://public.blenderkit.com/thumbnails/assets/531791258e274296ac2a7ba5c47483a2/files/thumbnail_55d05e28-8dc3-46f6-b061-aa42eb5f9d50.png.1024x1024_q85_crop-%2C.png.webp?webp_generated=1656204962",
						"thumbnailXlargeUrlWebp":"https://public.blenderkit.com/thumbnails/assets/531791258e274296ac2a7ba5c47483a2/files/thumbnail_55d05e28-8dc3-46f6-b061-aa42eb5f9d50.png.2048x2048_q85_crop-%2C.png.webp?webp_generated=1656204962",
						"thumbnailSmallUrlNonsquaredWebp":"https://public.blenderkit.com/thumbnails/assets/531791258e274296ac2a7ba5c47483a2/files/thumbnail_55d05e28-8dc3-46f6-b061-aa42eb5f9d50.png.256x256_q85.png.webp?webp_generated=1656204962",
						"thumbnailMiddleUrlNonsquaredWebp":"https://public.blenderkit.com/thumbnails/assets/531791258e274296ac2a7ba5c47483a2/files/thumbnail_55d05e28-8dc3-46f6-b061-aa42eb5f9d50.png.512x512_q85.png.webp?webp_generated=1656204962",
						"thumbnailLargeUrlNonsquaredWebp":"https://public.blenderkit.com/thumbnails/assets/531791258e274296ac2a7ba5c47483a2/files/thumbnail_55d05e28-8dc3-46f6-b061-aa42eb5f9d50.png.1024x1024_q85.png.webp?webp_generated=1656204962",
						"thumbnailXlargeUrlNonsquaredWebp":"https://public.blenderkit.com/thumbnails/assets/531791258e274296ac2a7ba5c47483a2/files/thumbnail_55d05e28-8dc3-46f6-b061-aa42eb5f9d50.png.2048x2048_q85.png.webp?webp_generated=1656204962",
						"showMarketingLabels":true,
						"webpGeneratedTimestamp":1656204962,
						"score":77.5,
						"ratingsMedian":{
							"competition-2022-votes":null,
							"quality":6.0,
							"workingHours":1.25,
							"virtualPrice":null,
							"bookmarks":1.0
						},
						"ratingsAverage":{
							"competition-2022-votes":null,
							"quality":6.2,
							"workingHours":1.25,
							"virtualPrice":null,
							"bookmarks":1.0
						},
						"ratingsCount":{
							"competition-2022-votes":0,
							"quality":5,
							"workingHours":2,
							"virtualPrice":0,
							"bookmarks":2
						},
						"ratingsSum":{
							"competition-2022-votes":null,
							"quality":31.0,
							"workingHours":2.5,
							"virtualPrice":null,
							"bookmarks":2.0
						},
						"lastBlendUpload":"2022-06-24T18:40:45.009553+00:00",
						"lastGltfUpload":null,
						"lastZipFileUpload":null,
						"lastThumbnailUpload":"2022-06-24T18:40:35.116646+00:00",
						"lastVideoUpload":null,
						"lastResolutionUpload":null,
						"dictParameters":{
							"textureSizeMeters":1.0,
							"procedural":true,
							"materialStyle":"realistic",
							"purePbr":false,
							"engine":"cycles",
							"shaders":[
								"principled",
								"mix shader",
								"reroute"
							],
							"animated":false,
							"uv":false,
							"nodeCount":116,
							"textureCount":0,
							"megapixels":0,
							"imageCaptionInterrogator":"a close up of a ball of doughnut with a white stripe, in the skin of fortnite, to honor jupiter, octrane render, brown color, white soft leather model, on amino, slush, gloopy, holding a tangerine, taurus, h0, leather pouch, unshaded, brown hat, faint glow"
						},
						"canDownload":true,
						"canDownloadError":true,
						"available_resolutions":[],
						"max_resolution":0,
						"tooltip_data":{
							"aname":"Doughnut",
							"author_text":"by DJ SOLANA",
							"quality":"6"
						},
						"resolution":"blend"
					}
				},
				"uuid":"64fa88a6-f065-4c94-a82d-870207dcf28e",
				"assets reported":{}
			},
			"name":"Scene",
			"nodes":[
				0,
				1,
				2,
				3
			]
		}
	],
	"nodes":[
		{
			"extensions":{
				"KHR_lights_punctual":{
					"light":0
				}
			},
			"name":"Light",
			"rotation":[
				-0.28416627645492554,
				0.7269423007965088,
				0.34203392267227173,
				0.5232754945755005
			],
			"translation":[
				4.076245307922363,
				5.903861999511719,
				-1.0054539442062378
			]
		},
		{
			"camera":0,
			"name":"Camera",
			"rotation":[
				-0.20997299253940582,
				0.3857799470424652,
				0.09062844514846802,
				0.8937962055206299
			],
			"translation":[
				7.358891487121582,
				4.958309173583984,
				6.925790786743164
			]
		},
		{
			"mesh":0,
			"name":"donut"
		},
		{
			"mesh":1,
			"name":"icing"
		}
	],
	"cameras":[
		{
			"name":"Camera",
			"perspective":{
				"aspectRatio":1.7777777777777777,
				"yfov":0.39959652046304894,
				"zfar":100,
				"znear":0.10000000149011612
			},
			"type":"perspective"
		}
	],
	"materials":[
		{
			"doubleSided":true,
			"extras":{
				"DM":{},
				"blenderkit":{
					"category":8,
					"license":0,
					"name":"Doughnut",
					"name_changed":1,
					"name_old":"Doughnut",
					"thumbnail":"//Renders/Doughnut.png",
					"has_thumbnail":1,
					"thumbnail_generating_state":"",
					"description":"A magical material that transforms everything into a doughnut for all Blender user.",
					"tags":"Doughnut, Donut, Torus, Ring, Sweet, Dessert, Cake, Coffee, Tea, Relax",
					"texture_resolution_max":0,
					"texture_resolution_min":0,
					"texture_count":0,
					"node_count":116,
					"total_megapixels":0,
					"is_procedural":1,
					"shaders":"principled, mix shader, reroute, ",
					"upload_state":"Starting upload. Please don't close Blender until upload finishes",
					"report":"",
					"asset_base_id":"a445504b-eb33-4422-8085-e75638b65aad",
					"id":"53179125-8e27-4296-ac2a-7ba5c47483a2",
					"uploading":0
				},
				"asset_data":{
					"thumbnail":"thumbnail_55d05e28-8dc3-46f6-b061-aa42eb5f9d50.png.512x512_q85_crop-%2C.png.webp",
					"thumbnail_small":"thumbnail_55d05e28-8dc3-46f6-b061-aa42eb5f9d50.png.256x256_q85_crop-%2C.png.webp",
					"downloaded":0,
					"texture_size_meters":1.0,
					"pk":33574,
					"url":"https://www.blenderkit.com/api/v1/assets/53179125-8e27-4296-ac2a-7ba5c47483a2/",
					"id":"53179125-8e27-4296-ac2a-7ba5c47483a2",
					"assetBaseId":"a445504b-eb33-4422-8085-e75638b65aad",
					"versionNumber":1,
					"author":{
						"id":"425",
						"firstName":"DJ",
						"lastName":"SOLANA",
						"gravatarHash":"acd315a95924202e8dba15edafa9d8ef",
						"avatar128":"/avatar-redirect/f5dfc2fc-834f-4feb-8658-8f8b1072cfa9/128/",
						"aboutMe":"\u2022 Graphic & Product Designer\r\n\u2022 3D Artist & Maker",
						"aboutMeUrl":"http://www.jackinthebox.com.hk",
						"fullName":"DJ SOLANA",
						"app_id":17456,
						"tooltip":"DJ SOLANA\n\n\u2022 Graphic & Product Designer\n\u2022 3D Artist & Maker\n",
						"gravatarImg":"C:\\Users\\anwar\\AppData\\Local\\Temp\\bktemp_anwar\\bkit_g\\425.jpg"
					},
					"name":"Doughnut",
					"displayName":"Doughnut",
					"description":"A magical material that transforms everything into a doughnut for all Blender user.",
					"assetType":"material",
					"category":"food-material",
					"adult":false,
					"isFree":true,
					"tags":[
						"Doughnut",
						"Donut",
						"Torus",
						"Ring",
						"Sweet",
						"Dessert",
						"Cake",
						"Coffee",
						"Tea",
						"Relax"
					],
					"license":"royalty_free",
					"sourceAppName":"blender",
					"sourceAppVersion":"3.2.0",
					"addonVersion":"3.1.5",
					"created":"2022-06-10T15:30:14.952413+02:00",
					"lastUserInteraction":"2022-06-24T20:40:46.337132+02:00",
					"verificationStatus":"validated",
					"isPrivate":false,
					"files":[
						{
							"fileType":"blend",
							"downloadUrl":"https://www.blenderkit.com/api/v1/downloads/119757/",
							"fileThumbnail":null,
							"fileThumbnailLarge":null,
							"created":"2022-06-24T20:40:45.009553+02:00",
							"modified":"2022-06-24T20:40:45.720940+02:00",
							"mimeType":null,
							"resolution":null,
							"url":"https://public.blenderkit.com/public-assets/assets/531791258e274296ac2a7ba5c47483a2/files/blend_79916e4f-2be0-4137-aea6-4472d01b051c.blend",
							"file_name":"blend_79916e4f-2be0-4137-aea6-4472d01b051c.blend"
						},
						{
							"fileType":"thumbnail",
							"downloadUrl":"https://www.blenderkit.com/api/v1/downloads/119756/",
							"fileThumbnail":"https://public.blenderkit.com/thumbnails/assets/531791258e274296ac2a7ba5c47483a2/files/thumbnail_55d05e28-8dc3-46f6-b061-aa42eb5f9d50.png.96x96_q85_crop-%2C.png",
							"fileThumbnailLarge":"https://public.blenderkit.com/thumbnails/assets/531791258e274296ac2a7ba5c47483a2/files/thumbnail_55d05e28-8dc3-46f6-b061-aa42eb5f9d50.png.1024x1024_q85_crop-%2C.png",
							"created":"2022-06-24T20:40:35.116646+02:00",
							"modified":"2022-06-24T20:40:41.444070+02:00",
							"mimeType":null,
							"resolution":null
						}
					],
					"filesSize":81,
					"thumbnailSmallUrl":"https://public.blenderkit.com/thumbnails/assets/531791258e274296ac2a7ba5c47483a2/files/thumbnail_55d05e28-8dc3-46f6-b061-aa42eb5f9d50.png.256x256_q85_crop-%2C.png",
					"thumbnailMiddleUrl":"https://public.blenderkit.com/thumbnails/assets/531791258e274296ac2a7ba5c47483a2/files/thumbnail_55d05e28-8dc3-46f6-b061-aa42eb5f9d50.png.512x512_q85_crop-%2C.png",
					"thumbnailLargeUrl":"https://public.blenderkit.com/thumbnails/assets/531791258e274296ac2a7ba5c47483a2/files/thumbnail_55d05e28-8dc3-46f6-b061-aa42eb5f9d50.png.1024x1024_q85_crop-%2C.png",
					"thumbnailXlargeUrl":"https://public.blenderkit.com/thumbnails/assets/531791258e274296ac2a7ba5c47483a2/files/thumbnail_55d05e28-8dc3-46f6-b061-aa42eb5f9d50.png.2048x2048_q85_crop-%2C.png",
					"thumbnailSmallUrlNonsquared":"https://public.blenderkit.com/thumbnails/assets/531791258e274296ac2a7ba5c47483a2/files/thumbnail_55d05e28-8dc3-46f6-b061-aa42eb5f9d50.png.256x256_q85.png",
					"thumbnailMiddleUrlNonsquared":"https://public.blenderkit.com/thumbnails/assets/531791258e274296ac2a7ba5c47483a2/files/thumbnail_55d05e28-8dc3-46f6-b061-aa42eb5f9d50.png.512x512_q85.png",
					"thumbnailLargeUrlNonsquared":"https://public.blenderkit.com/thumbnails/assets/531791258e274296ac2a7ba5c47483a2/files/thumbnail_55d05e28-8dc3-46f6-b061-aa42eb5f9d50.png.1024x1024_q85.png",
					"thumbnailXlargeUrlNonsquared":"https://public.blenderkit.com/thumbnails/assets/531791258e274296ac2a7ba5c47483a2/files/thumbnail_55d05e28-8dc3-46f6-b061-aa42eb5f9d50.png.2048x2048_q85.png",
					"thumbnailSmallUrlWebp":"https://public.blenderkit.com/thumbnails/assets/531791258e274296ac2a7ba5c47483a2/files/thumbnail_55d05e28-8dc3-46f6-b061-aa42eb5f9d50.png.256x256_q85_crop-%2C.png.webp?webp_generated=1656204962",
					"thumbnailMiddleUrlWebp":"https://public.blenderkit.com/thumbnails/assets/531791258e274296ac2a7ba5c47483a2/files/thumbnail_55d05e28-8dc3-46f6-b061-aa42eb5f9d50.png.512x512_q85_crop-%2C.png.webp?webp_generated=1656204962",
					"thumbnailLargeUrlWebp":"https://public.blenderkit.com/thumbnails/assets/531791258e274296ac2a7ba5c47483a2/files/thumbnail_55d05e28-8dc3-46f6-b061-aa42eb5f9d50.png.1024x1024_q85_crop-%2C.png.webp?webp_generated=1656204962",
					"thumbnailXlargeUrlWebp":"https://public.blenderkit.com/thumbnails/assets/531791258e274296ac2a7ba5c47483a2/files/thumbnail_55d05e28-8dc3-46f6-b061-aa42eb5f9d50.png.2048x2048_q85_crop-%2C.png.webp?webp_generated=1656204962",
					"thumbnailSmallUrlNonsquaredWebp":"https://public.blenderkit.com/thumbnails/assets/531791258e274296ac2a7ba5c47483a2/files/thumbnail_55d05e28-8dc3-46f6-b061-aa42eb5f9d50.png.256x256_q85.png.webp?webp_generated=1656204962",
					"thumbnailMiddleUrlNonsquaredWebp":"https://public.blenderkit.com/thumbnails/assets/531791258e274296ac2a7ba5c47483a2/files/thumbnail_55d05e28-8dc3-46f6-b061-aa42eb5f9d50.png.512x512_q85.png.webp?webp_generated=1656204962",
					"thumbnailLargeUrlNonsquaredWebp":"https://public.blenderkit.com/thumbnails/assets/531791258e274296ac2a7ba5c47483a2/files/thumbnail_55d05e28-8dc3-46f6-b061-aa42eb5f9d50.png.1024x1024_q85.png.webp?webp_generated=1656204962",
					"thumbnailXlargeUrlNonsquaredWebp":"https://public.blenderkit.com/thumbnails/assets/531791258e274296ac2a7ba5c47483a2/files/thumbnail_55d05e28-8dc3-46f6-b061-aa42eb5f9d50.png.2048x2048_q85.png.webp?webp_generated=1656204962",
					"showMarketingLabels":true,
					"webpGeneratedTimestamp":1656204962,
					"score":77.5,
					"ratingsMedian":{
						"competition-2022-votes":null,
						"quality":6.0,
						"workingHours":1.25,
						"virtualPrice":null,
						"bookmarks":1.0
					},
					"ratingsAverage":{
						"competition-2022-votes":null,
						"quality":6.2,
						"workingHours":1.25,
						"virtualPrice":null,
						"bookmarks":1.0
					},
					"ratingsCount":{
						"competition-2022-votes":0,
						"quality":5,
						"workingHours":2,
						"virtualPrice":0,
						"bookmarks":2
					},
					"ratingsSum":{
						"competition-2022-votes":null,
						"quality":31.0,
						"workingHours":2.5,
						"virtualPrice":null,
						"bookmarks":2.0
					},
					"lastBlendUpload":"2022-06-24T18:40:45.009553+00:00",
					"lastGltfUpload":null,
					"lastZipFileUpload":null,
					"lastThumbnailUpload":"2022-06-24T18:40:35.116646+00:00",
					"lastVideoUpload":null,
					"lastResolutionUpload":null,
					"dictParameters":{
						"textureSizeMeters":1.0,
						"procedural":true,
						"materialStyle":"realistic",
						"purePbr":false,
						"engine":"cycles",
						"shaders":[
							"principled",
							"mix shader",
							"reroute"
						],
						"animated":false,
						"uv":false,
						"nodeCount":116,
						"textureCount":0,
						"megapixels":0,
						"imageCaptionInterrogator":"a close up of a ball of doughnut with a white stripe, in the skin of fortnite, to honor jupiter, octrane render, brown color, white soft leather model, on amino, slush, gloopy, holding a tangerine, taurus, h0, leather pouch, unshaded, brown hat, faint glow"
					},
					"canDownload":true,
					"canDownloadError":true,
					"available_resolutions":[],
					"max_resolution":0,
					"tooltip_data":{
						"aname":"Doughnut",
						"author_text":"by DJ SOLANA",
						"quality":"6"
					},
					"resolution":"blend"
				}
			},
			"name":"Doughnut",
			"pbrMetallicRoughness":{}
		}
	],
	"meshes":[
		{
			"name":"Torus",
			"primitives":[
				{
					"attributes":{
						"POSITION":0,
						"NORMAL":1,
						"TEXCOORD_0":2
					},
					"indices":3
				}
			]
		},
		{
			"name":"Torus.001",
			"primitives":[
				{
					"attributes":{
						"POSITION":4,
						"NORMAL":5,
						"TEXCOORD_0":6,
						"TEXCOORD_1":7
					},
					"indices":8,
					"material":0
				}
			]
		}
	],
	"accessors":[
		{
			"bufferView":0,
			"componentType":5126,
			"count":697,
			"max":[
				0.04679986834526062,
				0.022113684564828873,
				0.04786406084895134
			],
			"min":[
				-0.047244682908058167,
				-0.016384534537792206,
				-0.04926197975873947
			],
			"type":"VEC3"
		},
		{
			"bufferView":1,
			"componentType":5126,
			"count":697,
			"type":"VEC3"
		},
		{
			"bufferView":2,
			"componentType":5126,
			"count":697,
			"type":"VEC2"
		},
		{
			"bufferView":3,
			"componentType":5123,
			"count":3840,
			"type":"SCALAR"
		},
		{
			"bufferView":4,
			"componentType":5126,
			"count":481,
			"max":[
				0.04679986834526062,
				0.022113684564828873,
				0.04786406084895134
			],
			"min":[
				-0.047244682908058167,
				-0.00018139390158466995,
				-0.04926197975873947
			],
			"type":"VEC3"
		},
		{
			"bufferView":5,
			"componentType":5126,
			"count":481,
			"type":"VEC3"
		},
		{
			"bufferView":6,
			"componentType":5126,
			"count":481,
			"type":"VEC2"
		},
		{
			"bufferView":7,
			"componentType":5126,
			"count":481,
			"type":"VEC2"
		},
		{
			"bufferView":8,
			"componentType":5123,
			"count":1920,
			"type":"SCALAR"
		}
	],
	"bufferViews":[
		{
			"buffer":0,
			"byteLength":8364,
			"byteOffset":0,
			"target":34962
		},
		{
			"buffer":0,
			"byteLength":8364,
			"byteOffset":8364,
			"target":34962
		},
		{
			"buffer":0,
			"byteLength":5576,
			"byteOffset":16728,
			"target":34962
		},
		{
			"buffer":0,
			"byteLength":7680,
			"byteOffset":22304,
			"target":34963
		},
		{
			"buffer":0,
			"byteLength":5772,
			"byteOffset":29984,
			"target":34962
		},
		{
			"buffer":0,
			"byteLength":5772,
			"byteOffset":35756,
			"target":34962
		},
		{
			"buffer":0,
			"byteLength":3848,
			"byteOffset":41528,
			"target":34962
		},
		{
			"buffer":0,
			"byteLength":3848,
			"byteOffset":45376,
			"target":34962
		},
		{
			"buffer":0,
			"byteLength":3840,
			"byteOffset":49224,
			"target":34963
		}
	],
	"buffers":[
		{
			"byteLength":53064,
			"uri":"data:application/octet-stream;base64,"
		}
	]
}
